<?xml version="1.0" encoding="UTF-8"?>
<svg width="30px" height="35px" viewBox="0 0 30 35" version="1.1" xmlns="http://www.w3.org/2000/svg" xmlns:xlink="http://www.w3.org/1999/xlink">
    <!-- Generator: Sketch 47.1 (45422) - http://www.bohemiancoding.com/sketch -->
    <title>android-logo</title>
    <desc>Created with Sketch.</desc>
    <defs></defs>
    <g id="Page-1" stroke="none" stroke-width="1" fill="none" fill-rule="evenodd">
        <g id="DV-LandingPage-Copy" transform="translate(-979.000000, -882.000000)" fill-rule="nonzero" fill="#F01A4E">
            <g id="android-logo" transform="translate(979.000000, 882.000000)">
                <path d="M2.22434968,11.3175722 C1.61481876,11.3175722 1.09765458,11.527509 0.672537313,11.9473827 C0.247420043,12.3672563 0.0347974414,12.8710921 0.0347974414,13.4591426 L0.0347974414,22.4880054 C0.0347974414,23.0907762 0.247356077,23.6011191 0.672537313,24.021056 C1.09765458,24.4409296 1.61481876,24.6509296 2.22434968,24.6509296 C2.83343284,24.6509296 3.34746269,24.4409928 3.76599147,24.021056 C4.1836887,23.6011823 4.39311301,23.0907762 4.39311301,22.4880054 L4.39311301,13.4591426 C4.39311301,12.8710289 4.18055437,12.3672563 3.75537313,11.9473827 C3.3301919,11.527509 2.81974414,11.3175722 2.22434968,11.3175722 Z" id="Shape"></path>
                <path d="M19.8276333,3.2123556 L21.3371002,0.462138989 C21.4361834,0.280063177 21.4009382,0.140442238 21.2310448,0.042265343 C21.0466311,-0.0423916968 20.9049467,0.000505415162 20.8059275,0.167924188 L19.2753518,2.94012635 C17.9285501,2.35201264 16.5040938,2.05741877 15.0019829,2.05741877 C13.4995522,2.05741877 12.074968,2.35207581 10.728678,2.94012635 L9.19803838,0.167924188 C9.09857143,0.000505415162 8.95688699,-0.0420126354 8.77292111,0.042265343 C8.60264392,0.140884477 8.56739872,0.280063177 8.66686567,0.462138989 L10.1763966,3.2123556 C8.64575693,3.98330325 7.4266951,5.05699458 6.51965885,6.43576715 C5.6126226,7.81529783 5.15891258,9.32282491 5.15891258,10.9610018 L24.8236887,10.9610018 C24.8236887,9.32320397 24.3699147,7.81561372 23.4629424,6.43576715 C22.5558422,5.05699458 21.3438166,3.98330325 19.8276333,3.2123556 Z M11.1005757,7.21259025 C10.9373348,7.37419675 10.7423667,7.45462094 10.5157356,7.45462094 C10.2886567,7.45462094 10.0976546,7.37419675 9.94183369,7.21259025 C9.78601279,7.05174188 9.70810235,6.85993682 9.70810235,6.63534296 C9.70810235,6.41150722 9.78601279,6.2193231 9.94183369,6.05809567 C10.0976546,5.89724729 10.2891045,5.8168231 10.5157356,5.8168231 C10.7423667,5.8168231 10.9373348,5.89724729 11.1005757,6.05809567 C11.2634328,6.21970217 11.3452452,6.41150722 11.3452452,6.63534296 C11.3447974,6.85955776 11.263049,7.05174188 11.1005757,7.21259025 Z M20.0613006,7.21259025 C19.9051599,7.37419675 19.71371,7.45462094 19.4874627,7.45462094 C19.2603198,7.45462094 19.0654158,7.37419675 18.9024947,7.21259025 C18.7393177,7.05174188 18.6578891,6.85993682 18.6578891,6.63534296 C18.6578891,6.41150722 18.7393177,6.2193231 18.9024947,6.05809567 C19.0654158,5.89724729 19.2603198,5.8168231 19.4874627,5.8168231 C19.7140938,5.8168231 19.9050959,5.89724729 20.0613006,6.05809567 C20.2172495,6.21970217 20.295032,6.41150722 20.295032,6.63534296 C20.295032,6.85955776 20.2171855,7.05174188 20.0613006,7.21259025 Z" id="Shape"></path>
                <path d="M5.24334755,25.7006137 C5.24334755,26.3451444 5.46997868,26.8907401 5.9233049,27.3384747 C6.37701493,27.7862094 6.92942431,28.0100451 7.5815565,28.0100451 L9.15486141,28.0100451 L9.17641791,32.7769946 C9.17641791,33.378944 9.38897655,33.8901083 9.81409382,34.3100451 C10.2392111,34.7299819 10.7497228,34.9399188 11.3447335,34.9399188 C11.9538806,34.9399188 12.4713646,34.7299819 12.8965458,34.3100451 C13.3217271,33.8901083 13.5342857,33.3790072 13.5342857,32.7769946 L13.5342857,28.0104874 L16.4680171,28.0104874 L16.4680171,32.7769946 C16.4680171,33.378944 16.6805117,33.8901083 17.105693,34.3100451 C17.5308742,34.7299819 18.0479104,34.9399188 18.6575053,34.9399188 C19.2666525,34.9399188 19.7841365,34.7299819 20.2093177,34.3100451 C20.6344989,33.8901083 20.8469936,33.3790072 20.8469936,32.7769946 L20.8469936,28.0104874 L22.4415352,28.0104874 C23.0792111,28.0104874 23.6245203,27.7865884 24.078678,27.3388538 C24.5319403,26.8911191 24.7586994,26.3455235 24.7586994,25.701056 L24.7586994,11.7161552 L5.24334755,11.7161552 L5.24334755,25.7006137 Z" id="Shape"></path>
                <path d="M27.7787846,11.3175722 C27.1833262,11.3175722 26.6732623,11.5244134 26.248081,11.9369585 C25.8229638,12.3502617 25.6104051,12.8579513 25.6104051,13.4591426 L25.6104051,22.4880054 C25.6104051,23.0907762 25.8228998,23.6011191 26.248081,24.021056 C26.6732623,24.4409928 27.18371,24.6509296 27.7787846,24.6509296 C28.3879318,24.6509296 28.9054158,24.4409928 29.330597,24.021056 C29.7557783,23.6011191 29.9682729,23.0907762 29.9682729,22.4880054 L29.9682729,13.4591426 C29.9682729,12.8578881 29.7557783,12.3502617 29.330597,11.9369585 C28.9054158,11.5244134 28.3879318,11.3175722 27.7787846,11.3175722 Z" id="Shape"></path>
            </g>
        </g>
    </g>
</svg>