<svg width="16" height="19" viewBox="0 0 16 19" version="1.1" xmlns="http://www.w3.org/2000/svg" xmlns:xlink="http://www.w3.org/1999/xlink">
<title>android-logo</title>
<desc>Created using Figma</desc>
<g id="Canvas" transform="translate(-1576 -2982)">
<g id="android-logo">
<g id="Shape">
<use xlink:href="#path0_fill" transform="translate(1576.02 2988.14)" fill="#FFFFFF"/>
</g>
<g id="Shape">
<use xlink:href="#path1_fill" transform="translate(1578.75 2982)" fill="#FFFFFF"/>
</g>
<g id="Shape">
<use xlink:href="#path2_fill" transform="translate(1578.8 2988.36)" fill="#FFFFFF"/>
</g>
<g id="Shape">
<use xlink:href="#path3_fill" transform="translate(1589.66 2988.14)" fill="#FFFFFF"/>
</g>
</g>
</g>
<defs>
<path id="path0_fill" d="M 1.16776 0C 0.842678 0 0.566857 0.113966 0.340128 0.341897C 0.113399 0.569829 0 0.843339 0 1.16257L 0 6.06395C 0 6.39117 0.113365 6.66821 0.340128 6.89618C 0.566857 7.12411 0.842678 7.23811 1.16776 7.23811C 1.49261 7.23811 1.76675 7.12414 1.98997 6.89618C 2.21274 6.66825 2.32443 6.39117 2.32443 6.06395L 2.32443 1.16257C 2.32443 0.843305 2.21107 0.569829 1.98431 0.341897C 1.75754 0.113966 1.4853 0 1.16776 0Z"/>
<path id="path1_fill" fill-rule="evenodd" d="M 7.82336 1.7439L 8.62842 0.250977C 8.68115 0.1521 8.66235 0.0761719 8.57178 0.0229492C 8.47351 -0.0229492 8.39783 0.000244141 8.34509 0.0910645L 7.52881 1.59595C 6.81042 1.27686 6.05078 1.11694 5.24963 1.11694C 4.44836 1.11694 3.6886 1.27686 2.97058 1.59595L 2.15417 0.0910645C 2.1012 0.000244141 2.02563 -0.0227051 1.92749 0.0229492C 1.83667 0.076416 1.81787 0.1521 1.87085 0.250977L 2.67603 1.7439C 1.85962 2.16235 1.20947 2.74512 0.725708 3.49365C 0.241943 4.24268 0 5.06104 0 5.9502L 10.4879 5.9502C 10.4879 5.06128 10.2458 4.24268 9.76221 3.49365C 9.27832 2.74512 8.63196 2.16235 7.82336 1.7439ZM 3.16895 3.91553C 3.08191 4.00317 2.97791 4.04688 2.85706 4.04688C 2.73584 4.04688 2.63403 4.00317 2.5509 3.91553C 2.46777 3.82812 2.42627 3.72388 2.42627 3.60205C 2.42627 3.48047 2.46777 3.37622 2.5509 3.28857C 2.63403 3.20142 2.73608 3.15771 2.85706 3.15771C 2.97791 3.15771 3.08191 3.20142 3.16895 3.28857C 3.25574 3.37646 3.29944 3.48047 3.29944 3.60205C 3.29919 3.72388 3.25562 3.82812 3.16895 3.91553ZM 7.64185 4.04688C 7.76257 4.04688 7.86462 4.00317 7.948 3.91553C 8.03113 3.82812 8.07263 3.72388 8.07263 3.60205C 8.07263 3.48047 8.03113 3.37646 7.948 3.28857C 7.86462 3.20142 7.76282 3.15771 7.64185 3.15771C 7.52075 3.15771 7.41687 3.20142 7.32996 3.28857C 7.24292 3.37622 7.19946 3.48047 7.19946 3.60205C 7.19946 3.72388 7.24292 3.82812 7.32996 3.91553C 7.41687 4.00317 7.52075 4.04688 7.64185 4.04688Z"/>
<path id="path2_fill" d="M 0 7.59156C 0 7.94145 0.12087 8.23763 0.362644 8.48069C 0.604623 8.72374 0.899241 8.84525 1.24704 8.84525L 2.08614 8.84525L 2.09764 11.433C 2.09764 11.7598 2.211 12.0373 2.43773 12.2653C 2.66446 12.4932 2.93673 12.6072 3.25407 12.6072C 3.57895 12.6072 3.85494 12.4932 4.08171 12.2653C 4.30847 12.0373 4.42183 11.7598 4.42183 11.433L 4.42183 8.84549L 5.98649 8.84549L 5.98649 11.433C 5.98649 11.7598 6.09982 12.0373 6.32658 12.2653C 6.55335 12.4932 6.8291 12.6072 7.15422 12.6072C 7.4791 12.6072 7.75509 12.4932 7.98185 12.2653C 8.20861 12.0373 8.32194 11.7598 8.32194 11.433L 8.32194 8.84549L 9.17237 8.84549C 9.51246 8.84549 9.80329 8.72395 10.0455 8.48089C 10.2872 8.23784 10.4082 7.94166 10.4082 7.5918L 10.4082 0L 0 0L 0 7.59156Z"/>
<path id="path3_fill" d="M 1.15647 0C 0.838891 0 0.566857 0.112285 0.340094 0.336238C 0.113365 0.560603 0 0.836206 0 1.16257L 0 6.06395C 0 6.39117 0.11333 6.66821 0.340094 6.89618C 0.566857 7.12414 0.839096 7.23811 1.15647 7.23811C 1.48135 7.23811 1.75734 7.12414 1.9841 6.89618C 2.21087 6.66821 2.3242 6.39117 2.3242 6.06395L 2.3242 1.16257C 2.3242 0.836172 2.21087 0.560603 1.9841 0.336238C 1.75734 0.112285 1.48135 0 1.15647 0Z"/>
</defs>
</svg>
