<?xml version="1.0" encoding="UTF-8"?>
<svg width="29px" height="36px" viewBox="0 0 29 36" version="1.1" xmlns="http://www.w3.org/2000/svg" xmlns:xlink="http://www.w3.org/1999/xlink">
    <!-- Generator: Sketch 47.1 (45422) - http://www.bohemiancoding.com/sketch -->
    <title>Shape</title>
    <desc>Created with Sketch.</desc>
    <defs></defs>
    <g id="Page-1" stroke="none" stroke-width="1" fill="none" fill-rule="evenodd">
        <g id="DV-LandingPage-Copy" transform="translate(-743.000000, -879.000000)" fill-rule="nonzero" fill="#F01A4E">
            <path d="M767.220869,898.128216 C767.175933,893.569088 770.89921,891.382582 771.065529,891.273949 C768.973507,888.179499 765.714613,887.755585 764.553306,887.706578 C761.779873,887.422726 759.141664,889.357092 757.734114,889.357092 C756.330112,889.357092 754.158096,887.748554 751.85795,887.790812 C748.835004,887.836234 746.047659,889.567537 744.491111,892.304167 C741.35033,897.813146 743.686787,905.97431 746.747991,910.442173 C748.243812,912.629171 750.027474,915.085465 752.369356,914.997715 C754.624566,914.906731 755.477374,913.522631 758.203924,913.522631 C760.930404,913.522631 761.696887,914.997715 764.083427,914.952434 C766.510242,914.906872 768.047731,912.7236 769.533257,910.529923 C771.250976,907.992769 771.958264,905.536404 772,905.410334 C771.946091,905.385443 767.267752,903.573844 767.220869,898.128216 Z M762.736464,884.748815 C763.979435,883.224512 764.8184,881.109725 764.589547,879 C762.799138,879.073687 760.62893,880.205507 759.344363,881.726365 C758.191751,883.07552 757.182781,885.228838 757.453161,887.296375 C759.451903,887.454015 761.492172,886.269673 762.736464,884.748815 Z" id="Shape"></path>
        </g>
    </g>
</svg>