<svg width="15" height="20" viewBox="0 0 15 20" version="1.1" xmlns="http://www.w3.org/2000/svg" xmlns:xlink="http://www.w3.org/1999/xlink">
<title>Shape</title>
<desc>Created using Figma</desc>
<g id="Canvas" transform="translate(-1696 -2979)">
<g id="Shape">
<use xlink:href="#path0_fill" transform="translate(1696 2979)" fill="#FFFFFF"/>
</g>
</g>
<defs>
<path id="path0_fill" fill-rule="evenodd" d="M 11.167 0C 11.2854 1.17212 10.8514 2.34692 10.2085 3.19385C 9.56494 4.03882 8.50964 4.69678 7.47583 4.60913C 7.33594 3.46045 7.85779 2.26416 8.45398 1.51465C 9.11841 0.669678 10.241 0.0410156 11.167 0ZM 14.5032 6.82788C 14.3119 6.95679 12.5055 8.17334 12.5281 10.627C 12.5518 13.5852 14.8658 14.613 14.9946 14.6702L 15 14.6726L 14.9937 14.6943C 14.9382 14.887 14.5656 16.1819 13.7241 17.5168C 12.9557 18.7354 12.1605 19.9482 10.9053 19.9736C 10.302 19.9858 9.8988 19.7966 9.47974 19.5996C 9.04114 19.3936 8.58521 19.1794 7.86414 19.1794C 7.10828 19.1794 6.63086 19.4004 6.1709 19.613C 5.77258 19.7971 5.38745 19.9753 4.84619 19.9988C 3.63489 20.0476 2.71228 18.6829 1.9386 17.468C 0.355225 14.9858 -0.853271 10.4519 0.77124 7.39136C 1.57642 5.87085 3.01807 4.90918 4.58167 4.88379C 5.25623 4.87061 5.9093 5.1521 6.48096 5.39819C 6.9176 5.58643 7.30652 5.75415 7.62109 5.75415C 7.90393 5.75415 8.28296 5.5918 8.72473 5.40283C 9.42017 5.10498 10.2711 4.74072 11.1483 4.83716C 11.7489 4.86426 13.4346 5.09985 14.5166 6.81885L 14.5032 6.82788Z"/>
</defs>
</svg>
