<?xml version="1.0" encoding="UTF-8"?>
<svg width="57px" height="54px" viewBox="0 0 57 54" version="1.1" xmlns="http://www.w3.org/2000/svg" xmlns:xlink="http://www.w3.org/1999/xlink">
    <!-- Generator: Sketch 47.1 (45422) - http://www.bohemiancoding.com/sketch -->
    <title>noun_1276360_cc</title>
    <desc>Created with Sketch.</desc>
    <defs></defs>
    <g id="Page-1" stroke="none" stroke-width="1" fill="none" fill-rule="evenodd">
        <g id="email-verification-2" transform="translate(-932.000000, -442.000000)" fill-rule="nonzero" fill="#3AB1FF">
            <g id="noun_1276360_cc" transform="translate(932.000000, 442.000000)">
                <g id="Group">
                    <path d="M53.7648649,5.63142857 L25.0337838,34.4828571 L14.0189189,23.3742857 C13.4027027,22.7571429 12.4783784,22.7571429 11.8621622,23.3742857 C11.2459459,23.9914286 11.2459459,24.9171429 11.8621622,25.5342857 L23.9554054,37.6457143 C24.2635135,37.9542857 24.6486486,38.1085714 25.0337838,38.1085714 C25.4189189,38.1085714 25.8040541,37.9542857 26.1121622,37.6457143 L55.9216216,7.79142857 C56.5378378,7.17428571 56.5378378,6.24857143 55.9216216,5.63142857 C55.3824324,5.09142857 54.3810811,5.09142857 53.7648649,5.63142857 Z" id="Shape"></path>
                    <path d="M26.9594595,54 C41.8256757,54 53.9189189,41.8885714 53.9189189,27 C53.9189189,24.5314286 53.6108108,21.9857143 52.9175676,19.6714286 C52.6864865,18.8228571 51.8391892,18.36 50.9918919,18.5914286 C50.1445946,18.8228571 49.6824324,19.6714286 49.9135135,20.52 C50.5297297,22.6028571 50.8378378,24.84 50.8378378,27.0771429 C50.8378378,40.2685714 40.1310811,50.9914286 26.9594595,50.9914286 C13.7878378,50.9914286 3.08108108,40.1914286 3.08108108,27 C3.08108108,13.8085714 13.7878378,3.08571429 26.9594595,3.08571429 C32.5824324,3.08571429 38.0513514,5.09142857 42.3648649,8.71714286 C42.9810811,9.25714286 43.9824324,9.18 44.5216216,8.56285714 C45.0608108,7.94571429 44.9837838,6.94285714 44.3675676,6.40285714 C39.5148649,2.23714286 33.2756757,0 26.9594595,0 C12.0932432,0 0,12.1114286 0,27 C0,41.8885714 12.0932432,54 26.9594595,54 Z" id="Shape"></path>
                </g>
            </g>
        </g>
    </g>
</svg>