<svg width="473" height="200" viewBox="0 0 473 200" version="1.1" xmlns="http://www.w3.org/2000/svg" xmlns:xlink="http://www.w3.org/1999/xlink">
<title>Path 2</title>
<desc>Created using Figma</desc>
<g id="Canvas" transform="translate(-544 -1182)">
<g id="Path 2" opacity="0.890002">
<use xlink:href="#path0_stroke" transform="matrix(-0.891007 0.45399 -0.45399 -0.891007 1004.37 1415.44)" fill="url(#paint0_linear)"/>
</g>
</g>
<defs>
<linearGradient id="paint0_linear" x1="0" y1="0" x2="1" y2="0" gradientUnits="userSpaceOnUse" gradientTransform="matrix(-370.409 632.697 -497.464 -471.102 501.59 -139.421)">
<stop offset="0" stop-color="#93C5EF" stop-opacity="0.01"/>
<stop offset="1" stop-color="#5A9CDA" stop-opacity="0.07"/>
</linearGradient>
<path id="path0_stroke" d="M -19.6818 12.6741C 5.06923 51.1106 45.8603 55.9116 74.3001 58.6822C 89.1445 60.1259 101.741 60.8958 112.431 63.7486C 122.854 66.2961 127.3 67.9887 131.697 74.766L 168.95 46.4063C 157.174 31.9388 139.255 22.4435 124.101 18.4074C 109.214 14.6768 93.0201 13.4675 78.8396 12.0837C 49.2296 9.19916 31.0321 4.95198 19.6818 -12.6741L -19.6818 12.6741ZM 131.697 74.766C 140.501 86.3298 139.337 100.21 133.838 126.424C 129.331 147.907 119.805 183.538 140.374 213.813L 179.101 187.502C 171.905 176.911 173.846 163.751 179.66 136.037C 184.481 113.054 192.493 77.3321 168.95 46.4063L 131.697 74.766ZM 140.374 213.813C 150.796 228.072 167.541 238.14 181.778 242.7C 195.738 246.926 211.266 248.827 224.8 250.591C 253.926 254.385 270.602 258.46 280.074 272.376L 318.778 246.032C 295.8 212.273 256.513 207.508 230.849 204.164C 216.987 202.359 205.413 201.117 195.649 197.983C 186.162 195.183 182.561 193.676 179.101 187.502L 140.374 213.813ZM 280.074 272.376C 288.919 285.37 286.233 295.279 278.392 317.8C 274.65 328.549 270.15 342.511 269.234 356.887C 268.761 371.14 273.258 390.167 284.254 406.514L 322.484 379.486C 316.058 371.188 315.408 367.128 315.999 359.123C 316.148 351.241 318.924 343.774 322.608 333.195C 329.619 313.058 342.384 280.713 318.778 246.032L 280.074 272.376Z"/>
</defs>
</svg>
