<?xml version="1.0" encoding="UTF-8"?>
<svg width="77px" height="28px" viewBox="0 0 77 28" version="1.1" xmlns="http://www.w3.org/2000/svg" xmlns:xlink="http://www.w3.org/1999/xlink">
    <!-- Generator: Sketch 47.1 (45422) - http://www.bohemiancoding.com/sketch -->
    <title>Combined Shape</title>
    <desc>Created with Sketch.</desc>
    <defs></defs>
    <g id="Page-1" stroke="none" stroke-width="1" fill="none" fill-rule="evenodd">
        <g id="email-verification-2" transform="translate(-851.000000, -739.000000)" fill="#F01A4E">
            <path d="M870.976518,753.020122 C870.976518,750.600522 870.222342,748.153178 868.713748,746.671135 C867.204674,745.188847 864.889411,744.447948 861.767237,744.447948 L857.241699,744.447948 C857.185352,744.447948 857.139601,744.494514 857.139601,744.551865 L857.139601,760.012218 C857.139601,760.818555 857.781806,761.472203 858.574028,761.472203 L862.239681,761.472203 C865.046651,761.472203 867.204674,760.751156 868.713748,759.309062 C870.222342,757.866968 870.976518,755.439722 870.976518,753.020122 Z M877.155609,752.859835 C877.155609,756.628234 875.876496,760.657778 873.318268,763.194676 C870.760282,765.732065 866.857204,766.999902 861.609997,766.999902 L852.430575,766.999902 C851.64052,766.999902 851,766.34797 851,765.543838 L851,739.104064 C851,739.046714 851.045751,739.000147 851.102098,739.000147 L861.924959,739.000147 C866.830957,739.000147 870.596059,740.221907 873.220023,742.665183 C875.843266,745.108703 877.155609,749.091436 877.155609,752.859835 Z M893.872466,760.180989 C893.854406,760.137608 893.810581,760.111384 893.764589,760.116531 L883.111341,761.384559 C883.081241,761.407598 883.056921,761.425734 883.02658,761.448772 L880.70602,766.935542 C880.689645,766.974511 880.65184,767 880.609942,767 L876.314364,767 C875.289051,767 874.599408,765.931664 875.005633,764.973863 L885.763238,739.064458 C885.780094,739.025244 885.817658,739 885.859316,739 L890.79132,739 C891.363213,739 891.880444,739.346063 892.107034,739.880354 L903.31493,766.851477 C903.344789,766.921572 903.293981,767 903.218852,767 L897.724828,767 C897.19074,767 896.707942,766.676485 896.497004,766.177487 L893.872466,760.180989 Z M885.632004,755.291689 C885.599978,755.367666 885.660899,755.45026 885.741325,755.439722 L891.526714,754.62211 C891.596063,754.613042 891.637239,754.539026 891.609307,754.473833 L888.877706,747.555998 C888.841346,747.470708 888.722151,747.470953 888.686032,747.556243 L885.632004,755.291689 Z M921.265458,756.936396 C921.201578,756.965336 921.1754,757.041539 921.215613,757.099379 L927.9796,766.823464 C928.03113,766.89748 927.979118,766.999926 927.889783,766.999926 L921.371408,766.999926 C920.854176,766.999926 920.370174,766.742095 920.074957,766.310006 L914.478835,758.115266 C914.458127,758.085121 914.424415,758.067229 914.388537,758.067229 L910.305583,758.067229 C910.244661,758.067229 910.195539,758.117227 910.195539,758.179234 L910.195539,766.888167 C910.195539,766.949929 910.146416,766.999926 910.085735,766.999926 L905.496145,766.999926 C904.700552,766.999926 904.055938,766.343583 904.055938,765.534059 L904.055938,739.111931 C904.055938,739.050169 904.105061,739.000172 904.165982,739.000172 L914.485096,739.000172 C918.76141,739.000172 920.878132,739.259866 922.999473,740.962524 C925.120813,742.665183 926.370835,745.805234 926.370835,748.293392 C926.370835,750.78155 925.732491,754.912699 921.265458,756.936396 Z M920.122407,748.513603 C920.122407,744.545091 916.767852,744.367584 914.800059,744.367584 L910.305583,744.367584 C910.244661,744.367584 910.195539,744.417827 910.195539,744.479589 L910.195539,751.19106 C910.195539,752.002053 910.841356,752.659623 911.638394,752.659623 L914.682068,752.659623 C916.780614,752.659623 920.122407,752.482115 920.122407,748.513603 Z" id="Combined-Shape"></path>
        </g>
    </g>
</svg>