<?xml version="1.0" encoding="UTF-8"?>
<svg width="42px" height="42px" viewBox="0 0 42 42" version="1.1" xmlns="http://www.w3.org/2000/svg" xmlns:xlink="http://www.w3.org/1999/xlink">
    <!-- Generator: Sketch 47.1 (45422) - http://www.bohemiancoding.com/sketch -->
    <title>Group 2</title>
    <desc>Created with Sketch.</desc>
    <defs>
        <linearGradient x1="23.9693734%" y1="100%" x2="89.3547382%" y2="5.17553772%" id="linearGradient-1">
            <stop stop-color="#3DACFF" offset="0%"></stop>
            <stop stop-color="#16F3FF" offset="100%"></stop>
        </linearGradient>
        <rect id="path-2" x="0" y="0" width="42" height="42" rx="10.5"></rect>
        <path d="M20.754961,2.73471882 C20.754961,1.23865388 21.974706,0.0251810673 23.4776181,0.0251810673 C25.0354659,0.0251810673 26.2541443,1.23889181 26.2541443,2.73471882 L26.2541443,7.41210199 C26.2541443,7.65963465 28.572543,12.9517877 28.572543,15.6896688 C28.572543,23.1793078 22.2097989,29.2158406 14.4021506,29.2158406 C12.018807,29.2158406 9.71765669,28.6521701 7.66814384,27.5938342 C5.85405718,27.7886986 4.10871171,27.7844076 2.54986183,27.6567261 C2.31113925,27.6371729 2.09730322,27.6160486 1.91055982,27.5946623 C1.80317536,27.5823644 1.72215666,27.5720328 1.66919275,27.564655 C1.47382155,27.5389811 1.28290765,27.4904234 1.07766385,27.3943919 C0.565310991,27.1546675 0.134257502,26.7078926 0.0417258511,25.9872027 C-0.047603378,25.2914551 0.231112733,24.773001 0.63543639,24.4107174 C0.802787608,24.2607667 0.970669982,24.1594073 1.14981861,24.0777337 L1.26107776,24.0270109 C1.37456196,23.9683644 1.46619685,23.8909821 1.56379854,23.7731093 C1.69169263,23.6186527 1.80970924,23.417327 1.91085429,23.1562902 C1.99366323,22.9425755 2.04767672,22.7751442 2.07803089,22.6469079 C2.09780598,22.5633647 2.10440067,22.5120227 2.10442985,22.4822092 C2.09253059,22.4287941 2.07886639,22.3893942 2.05637166,22.3340839 C0.867241779,20.3245036 0.231758306,18.0497861 0.231758306,15.6896688 C0.231758306,12.8934868 2.6845906,7.61002379 2.6845906,7.41210199 L2.6845906,2.73471882 C2.6845906,1.23865388 3.90433562,0.0251810673 5.4072477,0.0251810673 C6.96509553,0.0251810673 8.18377389,1.23889181 8.18377389,2.73471882 L8.18377389,3.53188263 C10.0932773,2.64081173 12.2106848,2.16349696 14.4021506,2.16349696 C16.6457106,2.16349696 18.8112208,2.66385796 20.754961,3.5954447 L20.754961,2.73471882 Z M23.4776181,3.57050239 L23.5314872,3.57050239 C23.5224805,3.57050239 23.5135072,3.57036185 23.5045694,3.57008287 C23.4956206,3.57036185 23.4866361,3.57050239 23.4776181,3.57050239 Z M5.4072477,3.57050239 L5.46111679,3.57050239 C5.45211011,3.57050239 5.44313682,3.57036185 5.434199,3.57008287 C5.42525023,3.57036185 5.41626577,3.57050239 5.4072477,3.57050239 Z M21.3980705,8.18806455 C19.4771719,6.60022277 17.0167762,5.70881828 14.4021506,5.70881828 C11.8404726,5.70881828 9.42630686,6.56427644 7.52121741,8.09437157 L6.8090003,8.66639717 L6.21340803,9.34622125 C4.65689336,11.1228665 3.79521266,13.3431334 3.79521266,15.6896688 C3.79521266,17.4426265 4.27469284,19.1267763 5.17584201,20.6167682 L5.23493324,20.7144717 L5.28095555,20.8189024 C5.77614374,21.9425492 5.80240053,22.8599472 5.32395957,24.195333 C6.12421128,24.1771084 6.9528991,24.1182481 7.79017781,24.0090166 L8.38690849,23.9311671 L8.90886123,24.2292681 C10.5508065,25.1670264 12.4346221,25.6705192 14.4021506,25.6705192 C20.278644,25.6705192 25.0090886,21.1825996 25.0090886,15.6896688 C25.0090886,13.3635795 24.1624608,11.1614534 22.6307445,9.39198239 L22.0678468,8.74171104 L21.3980705,8.18806455 Z" id="path-4"></path>
    </defs>
    <g id="Page-1" stroke="none" stroke-width="1" fill="none" fill-rule="evenodd">
        <g id="email-verification-2" transform="translate(-1004.000000, -727.000000)">
            <g id="Group-2" transform="translate(1004.000000, 727.000000)">
                <g id="Rectangle-2-Copy-2">
                    <mask id="mask-3" fill="white">
                        <use xlink:href="#path-2"></use>
                    </mask>
                    <use id="Mask" fill="url(#linearGradient-1)" xlink:href="#path-2"></use>
                </g>
                <g id="Rectangle-+-Rectangle-Copy-Mask-Copy" transform="translate(7.000000, 5.600000)">
                    <mask id="mask-5" fill="white">
                        <use xlink:href="#path-4"></use>
                    </mask>
                    <use id="Mask" fill="#FFFFFF" fill-rule="nonzero" xlink:href="#path-4"></use>
                </g>
            </g>
        </g>
    </g>
</svg>