<?xml version="1.0" encoding="UTF-8"?>
<svg width="238px" height="244px" viewBox="0 0 238 244" version="1.1" xmlns="http://www.w3.org/2000/svg" xmlns:xlink="http://www.w3.org/1999/xlink">
    <!-- Generator: Sketch 47.1 (45422) - http://www.bohemiancoding.com/sketch -->
    <title>Rectangle + Rectangle Copy Mask</title>
    <desc>Created with Sketch.</desc>
    <defs>
        <path d="M172.825049,22.6485877 C172.825049,10.1432229 182.994027,0 195.523761,0 C208.511492,0 218.671578,10.1452117 218.671578,22.6485877 L218.671578,61.7460769 C218.671578,63.8151623 238,108.051413 238,130.936918 C238,193.541599 184.95399,244 119.861855,244 C99.9919898,244 80.8073668,239.28837 63.7206384,230.441911 C48.5966511,232.070752 34.0457572,232.034883 21.0496716,230.967614 C19.0594484,230.804173 17.2767037,230.627597 15.7198294,230.448833 C14.8245684,230.346037 14.1491178,230.259677 13.7075592,230.198007 C12.0787553,229.983403 10.4871118,229.577517 8.77600018,228.774806 C4.50452947,226.770988 0.91084918,223.036468 0.139415528,217.012338 C-0.605319633,211.196697 1.7183284,206.863023 5.08916286,203.834753 C6.48436505,202.581339 7.88399547,201.734092 9.37755232,201.051396 L10.3051166,200.627412 C11.2512311,200.137196 12.0151884,199.490369 12.8288909,198.50509 C13.8951402,197.214012 14.8790411,195.531163 15.7222844,193.349199 C16.4126601,191.562792 16.8629691,190.163261 17.1160309,189.091355 C17.2808952,188.393031 17.3358749,187.963871 17.3361182,187.714665 C17.2369145,187.268177 17.1229964,186.93884 16.9354585,186.47651 C7.02171758,169.678753 1.72371052,150.664757 1.72371052,130.936918 C1.72371052,107.564085 22.1729014,63.4004732 22.1729014,61.7460769 L22.1729014,22.6485877 C22.1729014,10.1432229 32.3418797,0 44.8716137,0 C57.8593452,0 68.019431,10.1452117 68.019431,22.6485877 L68.019431,29.311951 C83.9389045,21.8636335 101.591669,17.8738366 119.861855,17.8738366 C138.566349,17.8738366 156.620144,22.0562732 172.825049,29.8432561 L172.825049,22.6485877 Z M195.523761,29.6347673 L195.972866,29.6347673 C195.897777,29.6347673 195.822967,29.6335926 195.748453,29.6312607 C195.673847,29.6335926 195.598944,29.6347673 195.523761,29.6347673 Z M44.8716137,29.6347673 L45.3207187,29.6347673 C45.2456302,29.6347673 45.1708202,29.6335926 45.0963059,29.6312607 C45.0217002,29.6335926 44.946797,29.6347673 44.8716137,29.6347673 Z M178.186634,68.2322224 C162.172158,54.9597099 141.659912,47.5086039 119.861855,47.5086039 C98.5052206,47.5086039 78.3783919,54.6592403 62.495717,67.4490579 L56.5579839,72.2305273 L51.5925486,77.9130669 C38.6159315,92.7637569 31.4321248,111.322609 31.4321248,130.936918 C31.4321248,145.589608 35.4295371,159.667144 42.9423912,172.121745 L43.4350331,172.938433 L43.8187197,173.811352 C47.9470891,183.203734 48.1659912,190.872115 44.177243,202.034389 C50.8489179,201.882053 57.757664,201.39005 64.738032,200.477001 L69.7129582,199.826269 L74.0644628,202.318047 C87.7533121,210.156617 103.458628,214.365233 119.861855,214.365233 C168.854008,214.365233 208.291586,176.851439 208.291586,130.936918 C208.291586,111.493515 201.233274,93.0862989 188.463401,78.2955768 L183.770539,72.8600639 L178.186634,68.2322224 Z" id="path-1"></path>
    </defs>
    <g id="Page-1" stroke="none" stroke-width="1" fill="none" fill-rule="evenodd" opacity="0.193161232">
        <g id="DV-LandingPage-Copy" transform="translate(-251.000000, -73.000000)">
            <g id="Rectangle-+-Rectangle-Copy-Mask" transform="translate(251.000000, 73.000000)">
                <mask id="mask-2" fill="white">
                    <use xlink:href="#path-1"></use>
                </mask>
                <use id="Mask" fill="#FFFFFF" fill-rule="nonzero" xlink:href="#path-1"></use>
            </g>
        </g>
    </g>
</svg>