<?xml version="1.0" encoding="UTF-8"?>
<svg width="201px" height="201px" viewBox="0 0 201 201" version="1.1" xmlns="http://www.w3.org/2000/svg" xmlns:xlink="http://www.w3.org/1999/xlink">
    <!-- Generator: Sketch 47.1 (45422) - http://www.bohemiancoding.com/sketch -->
    <title>Group 3</title>
    <desc>Created with Sketch.</desc>
    <defs>
        <linearGradient x1="23.9693734%" y1="100%" x2="89.3547382%" y2="5.17553772%" id="linearGradient-1">
            <stop stop-color="#3DACFF" offset="0%"></stop>
            <stop stop-color="#16F3FF" offset="100%"></stop>
        </linearGradient>
        <rect id="path-2" x="0" y="0" width="200.5" height="200.5" rx="50"></rect>
        <path d="M97.6278652,12.9294529 C97.6278652,5.85622071 103.365342,0.119053345 110.434789,0.119053345 C117.762644,0.119053345 123.495104,5.85734564 123.495104,12.9294529 L123.495104,35.0436114 C123.495104,36.2139189 134.400463,61.2346424 134.400463,74.1790462 C134.400463,109.589244 104.47118,138.129314 67.7453078,138.129314 C56.5344582,138.129314 45.7102318,135.464342 36.0696662,130.460644 C27.5365059,131.381943 19.3266927,131.361655 11.9941236,130.757991 C10.8712125,130.665545 9.86536356,130.565672 8.98695384,130.46456 C8.48183533,130.406417 8.1007369,130.35757 7.85160351,130.322689 C6.93261009,130.201305 6.03458305,129.971729 5.0691505,129.517703 C2.65912836,128.384312 0.631524833,126.272009 0.196271425,122.864666 C-0.223918329,119.575247 1.08711564,117.124053 2.98898651,115.411215 C3.77617865,114.702264 4.56586925,114.223048 5.40855444,113.836904 L5.93189888,113.597092 C6.46570958,113.319818 6.89674475,112.953963 7.35584681,112.396673 C7.95743922,111.666419 8.51256959,110.714573 8.98833897,109.48042 C9.37785839,108.47 9.63192884,107.678403 9.77470977,107.072116 C9.86772848,106.677132 9.89874878,106.434393 9.89888604,106.293438 C9.84291394,106.040897 9.7786398,105.854619 9.67282835,105.593118 C4.07936029,96.0920408 1.09015231,85.3374241 1.09015231,74.1790462 C1.09015231,60.959002 12.6278652,35.9793642 12.6278652,35.0436114 L12.6278652,12.9294529 C12.6278652,5.85622071 18.3653418,0.119053345 25.4347889,0.119053345 C32.7626445,0.119053345 38.4951037,5.85734564 38.4951037,12.9294529 L38.4951037,16.6983567 C47.4770882,12.4854704 57.437019,10.2287782 67.7453078,10.2287782 C78.2986387,10.2287782 88.4848366,12.5944305 97.6278652,16.9988712 L97.6278652,12.9294529 Z M110.434789,16.8809467 L110.68818,16.8809467 C110.645814,16.8809467 110.603605,16.8802822 110.561563,16.8789632 C110.51947,16.8802822 110.477208,16.8809467 110.434789,16.8809467 Z M25.4347889,16.8809467 L25.68818,16.8809467 C25.6458141,16.8809467 25.6036052,16.8802822 25.5615633,16.8789632 C25.5194697,16.8802822 25.4772083,16.8809467 25.4347889,16.8809467 Z M100.652945,38.712278 C91.617359,31.2051349 80.0440693,26.9906715 67.7453078,26.9906715 C55.6956028,26.9906715 44.339771,31.0351845 35.3785488,38.2693078 L32.0283986,40.9737825 L29.2268322,44.1879168 C21.9052475,52.587702 17.8520456,63.0848825 17.8520456,74.1790462 C17.8520456,82.4668393 20.1074402,90.4293163 24.3462951,97.473836 L24.6242504,97.9357677 L24.8407317,98.4295044 C27.1700141,103.741984 27.2935217,108.079342 25.0430154,114.392901 C28.8072656,114.306737 32.7052745,114.028452 36.6436936,113.512017 L39.4506148,113.143953 L41.9057932,114.553342 C49.6292291,118.986962 58.4903828,121.367421 67.7453078,121.367421 C95.3873499,121.367421 117.63857,100.149025 117.63857,74.1790462 C117.63857,63.1815493 113.656174,52.7701369 106.451237,44.4042705 L103.80346,41.3298583 L100.652945,38.712278 Z" id="path-4"></path>
    </defs>
    <g id="Page-1" stroke="none" stroke-width="1" fill="none" fill-rule="evenodd">
        <g id="email-verification-2" transform="translate(-860.000000, -211.000000)">
            <g id="Group-3" transform="translate(860.000000, 211.000000)">
                <g id="Rectangle-2-Copy-3">
                    <mask id="mask-3" fill="white">
                        <use xlink:href="#path-2"></use>
                    </mask>
                    <use id="Mask" fill="url(#linearGradient-1)" xlink:href="#path-2"></use>
                </g>
                <g id="Group" transform="translate(35.000000, 28.000000)">
                    <g id="Rectangle-+-Rectangle-Copy-Mask">
                        <mask id="mask-5" fill="white">
                            <use xlink:href="#path-4"></use>
                        </mask>
                        <use id="Mask" fill="#FFFFFF" fill-rule="nonzero" xlink:href="#path-4"></use>
                    </g>
                </g>
            </g>
        </g>
    </g>
</svg>