<?xml version="1.0" encoding="UTF-8"?>
<svg width="231px" height="49px" viewBox="0 0 231 49" version="1.1" xmlns="http://www.w3.org/2000/svg" xmlns:xlink="http://www.w3.org/1999/xlink">
    <!-- Generator: Sketch 47.1 (45422) - http://www.bohemiancoding.com/sketch -->
    <title>Group Copy 3</title>
    <desc>Created with Sketch.</desc>
    <defs></defs>
    <g id="Page-1" stroke="none" stroke-width="1" fill="none" fill-rule="evenodd">
        <g id="DV-LandingPage-Copy" transform="translate(-329.000000, -49.000000)" fill="#FFFFFF">
            <g id="Group-Copy-3" transform="translate(329.000000, 31.000000)">
                <text id="Vis" font-family=".SFNSDisplay, .SF NS Display" font-size="67.996796" font-weight="normal" letter-spacing="-1.46797967">
                    <tspan x="148" y="66">Vis</tspan>
                </text>
                <path d="M34.7643296,42.0344943 C34.7643296,37.8866086 33.4518672,33.691162 30.8265233,31.1505169 C28.2003414,28.6094516 24.1711824,27.3393391 18.7377893,27.3393391 L10.8621768,27.3393391 C10.7641193,27.3393391 10.6844999,27.4191676 10.6844999,27.5174826 L10.6844999,54.0209445 C10.6844999,55.4032369 11.8021044,56.5237761 13.1807765,56.5237761 L19.559964,56.5237761 C24.4448216,56.5237761 28.2003414,55.2876957 30.8265233,52.815535 C33.4518672,50.3433743 34.7643296,46.18238 34.7643296,42.0344943 Z M45.5175535,41.7597164 C45.5175535,48.2198289 43.2915637,55.1276187 38.839584,59.476588 C34.3880233,63.8263977 27.5956533,65.9998319 18.4641501,65.9998319 L2.48957187,65.9998319 C1.11467113,65.9998319 0,64.8822338 0,63.5037227 L0,18.1783956 C0,18.0800805 0.0796193662,18.0002521 0.177676901,18.0002521 L19.0122665,18.0002521 C27.5499769,18.0002521 34.1022317,20.0946982 38.6686119,24.2831704 C43.2337349,28.4720627 45.5175535,35.2996039 45.5175535,41.7597164 Z M74.6092264,54.3102664 C74.5777977,54.2358999 74.5015307,54.1909439 74.4214923,54.199767 L55.8820734,56.3735306 C55.8296923,56.4130246 55.7873683,56.4441157 55.7345681,56.4836098 L51.69619,65.8895006 C51.6676947,65.9563044 51.6019039,66 51.5289894,66 L44.053569,66 C42.2692571,66 41.0690999,64.1685676 41.776036,62.5266226 L60.4970633,18.1104994 C60.5263968,18.0432754 60.5917685,18 60.664264,18 L69.2472317,18 C70.2424737,18 71.1425916,18.5932513 71.536917,19.5091776 L91.0415665,65.7453893 C91.0935286,65.8655521 91.0051092,66 90.8743658,66 L81.3133371,66 C80.3838858,66 79.5436919,65.4454024 79.1766047,64.5899777 L74.6092264,54.3102664 Z M60.2686815,45.9286096 C60.2129479,46.058856 60.3189674,46.2004464 60.4589298,46.18238 L70.5270082,44.7807606 C70.6476944,44.7652151 70.7193518,44.6383299 70.6707421,44.5265701 L65.9170469,32.6674253 C65.8537705,32.5212132 65.6463411,32.5216333 65.5834837,32.6678454 L60.2686815,45.9286096 Z M122.280147,48.748108 C122.168981,48.797718 122.123423,48.9283522 122.193404,49.0275075 L133.964499,65.6973662 C134.054175,65.8242514 133.96366,65.999874 133.808193,65.999874 L122.464529,65.999874 C121.564411,65.999874 120.722122,65.5578765 120.208367,64.8171526 L110.469662,50.769028 C110.433623,50.7173496 110.374957,50.6866786 110.312518,50.6866786 L103.207118,50.6866786 C103.101099,50.6866786 103.015613,50.7723892 103.015613,50.878687 L103.015613,65.8082857 C103.015613,65.9141634 102.930127,65.999874 102.824526,65.999874 L94.8374468,65.999874 C93.4529079,65.999874 92.3311129,64.8747131 92.3311129,63.4869587 L92.3311129,18.1918824 C92.3311129,18.0860046 92.416599,18.0002941 92.5226185,18.0002941 L110.480557,18.0002941 C117.922453,18.0002941 121.606101,18.4454839 125.297783,21.3643271 C128.989466,24.2831704 131.16483,29.6661158 131.16483,33.9315296 C131.16483,38.1969434 130.053945,45.2789128 122.280147,48.748108 Z M120.290942,34.3090341 C120.290942,27.5058703 114.453144,27.2015721 111.028673,27.2015721 L103.207118,27.2015721 C103.101099,27.2015721 103.015613,27.2877027 103.015613,27.3935805 L103.015613,38.8989593 C103.015613,40.2892345 104.139503,41.4164961 105.526556,41.4164961 L110.823339,41.4164961 C114.475354,41.4164961 120.290942,41.1121979 120.290942,34.3090341 Z" id="Combined-Shape-Copy"></path>
            </g>
        </g>
    </g>
</svg>