<svg width="33" height="24" viewBox="0 0 33 24" version="1.1" xmlns="http://www.w3.org/2000/svg" xmlns:xlink="http://www.w3.org/1999/xlink">
<title>Group</title>
<desc>Created using Figma</desc>
<g id="Canvas" transform="translate(-1352 -1467)">
<g id="Group">
<g id="Shape">
<use xlink:href="#path0_fill" transform="translate(1352.03 1467.43)" fill="#B3B9BD"/>
</g>
<g id="Oval">
<use xlink:href="#path1_fill" transform="translate(1357.91 1474.18)" fill="#B3B9BD"/>
</g>
<g id="Oval">
<use xlink:href="#path1_fill" transform="translate(1363.41 1474.18)" fill="#B3B9BD"/>
</g>
<g id="Oval">
<use xlink:href="#path1_fill" transform="translate(1368.91 1474.18)" fill="#B3B9BD"/>
</g>
</g>
</g>
<defs>
<path id="path0_fill" fill-rule="evenodd" d="M 30.288 19.3361C 30.792 20.5995 31.6489 21.6265 32.6885 22.1965C 32.8884 22.3065 32.99 22.538 32.933 22.759C 32.876 22.98 32.677 23.135 32.4485 23.135C 32.39 23.135 32.333 23.1305 32.2035 23.12C 30.2645 23.12 26.812 21.6176 25.6825 19.5L 15.5284 19.5C 13.7145 19.5 12.3684 17.8435 12.214 15.5L 8.82092 15.5C 7.50696 18.2245 3.27942 19.9449 0.79895 19.9449C 0.695435 19.9449 0.592407 19.9406 0.484497 19.9351C 0.260498 19.925 0.0639648 19.7665 0.0134277 19.548C -0.0369873 19.329 0.0570068 19.1035 0.253906 18.996C 1.56042 18.283 2.64502 16.9406 3.27893 15.2679C 1.46448 14.589 0.198486 13.4745 0.198486 11L 0.198486 5.5C 0.198486 2.41602 2.09192 0 4.50842 0L 21.4779 0C 23.8445 0 25.698 2.41602 25.698 5.5L 25.698 6.5L 29.213 6.5C 31.167 6.5 32.6885 7.73499 32.698 11.03L 32.698 15.045C 32.698 17.0325 31.713 18.7375 30.288 19.3361ZM 2.19946 18.7755C 4.44604 18.285 7.27148 16.772 8.02649 14.8201C 8.10095 14.627 8.2865 14.5 8.49304 14.4995L 12.697 14.4995L 21.4771 14.4995C 23.2825 14.4995 24.697 13.5231 24.697 10.9995L 24.697 9.99951L 24.697 5.49951C 24.697 2.97595 23.2825 0.999512 21.4771 0.999512L 4.50757 0.999512C 2.6825 0.999512 1.19751 3.01855 1.19751 5.49951L 1.19751 10.9995C 1.19751 13.2056 2.41199 14.1165 4.02246 14.4451C 4.1615 14.4735 4.28149 14.559 4.35352 14.6815C 4.42554 14.804 4.44202 14.95 4.39954 15.0856C 3.93848 16.5475 3.16846 17.825 2.19946 18.7755Z"/>
<path id="path1_fill" d="M 1.25 2.5C 1.94036 2.5 2.5 1.94036 2.5 1.25C 2.5 0.559644 1.94036 0 1.25 0C 0.559644 0 0 0.559644 0 1.25C 0 1.94036 0.559644 2.5 1.25 2.5Z"/>
</defs>
</svg>
