<?xml version="1.0" encoding="UTF-8"?>
<svg width="27px" height="26px" viewBox="0 0 27 26" version="1.1" xmlns="http://www.w3.org/2000/svg" xmlns:xlink="http://www.w3.org/1999/xlink">
    <!-- Generator: Sketch 47.1 (45422) - http://www.bohemiancoding.com/sketch -->
    <title>Group 4 Copy</title>
    <desc>Created with Sketch.</desc>
    <defs>
        <path d="M7.0626748,3.59255535 L4.61445087,3.59255535 L4.61445087,10.4564668 L2.70682423,10.4564668 L2.70682423,3.59255535 L0.125310578,3.59255535 L0.125310578,2.13704073 L7.0626748,2.13704073 L7.0626748,3.59255535 Z M0.125310578,0.132341017 L7.09682792,0.132341017 L7.09682792,1.57470541 L0.125310578,1.57470541 L0.125310578,0.132341017 Z" id="path-1"></path>
    </defs>
    <g id="Page-1" stroke="none" stroke-width="1" fill="none" fill-rule="evenodd">
        <g id="Artboard-Copy-6" transform="translate(-671.000000, -64.000000)">
            <g id="Group-4" transform="translate(620.000000, 34.000000)">
                <g id="Group-4-Copy" transform="translate(51.000000, 30.000000)">
                    <g id="Group" transform="translate(0.008096, 0.014098)" fill-rule="nonzero" fill="#727272">
                        <path d="M13.0823653,2.57906241 C15.9203115,2.57906241 18.4955803,3.68509307 20.380677,5.46479695 L19.0209351,6.78197892 C18.6913007,7.1037333 18.9230749,7.6466938 19.3917738,7.6466938 L24.14572,7.6466938 C24.4341501,7.6466938 24.6710748,7.42046026 24.6710748,7.13892518 L24.6710748,2.53884311 C24.6710748,2.08637602 24.1096662,1.86014248 23.7800318,2.18189685 L22.2348705,3.68006566 C19.8707738,1.43281245 16.6413868,0.0452467083 13.0823653,0.0452467083 C5.86646225,0.0452467083 0,5.73124979 0,12.7193526 L2.61647307,12.7193526 C2.61647307,7.12887036 7.3137633,2.57906241 13.0823653,2.57906241 Z" id="Shape"></path>
                        <path d="M23.5482576,12.7193526 C23.5482576,18.3098349 18.8509674,22.8596428 13.0823653,22.8596428 C10.2495697,22.8596428 7.67945146,21.7586396 5.79435473,19.9789357 L7.15924717,18.6516989 C7.48888157,18.3299445 7.25710738,17.786984 6.78840847,17.786984 L2.03446233,17.786984 C1.74603222,17.786984 1.5091075,18.0132176 1.5091075,18.2947526 L1.5091075,22.8998621 C1.5091075,23.3523292 2.07051609,23.5785627 2.40015049,23.2568084 L3.94531175,21.7686944 C6.30425794,24.0058928 9.52849444,25.3884311 13.0823653,25.3884311 C20.2982684,25.3884311 26.1647307,19.702428 26.1647307,12.7143252 L23.5482576,12.7143252 L23.5482576,12.7193526 Z" id="Shape"></path>
                    </g>
                    <g id="Rectangle-2" transform="translate(9.507198, 7.955566)">
                        <mask id="mask-2" fill="white">
                            <use xlink:href="#path-1"></use>
                        </mask>
                        <use id="Mask" fill="#727272" xlink:href="#path-1"></use>
                    </g>
                </g>
            </g>
        </g>
    </g>
</svg>