<?xml version="1.0" encoding="UTF-8"?>
<svg width="46px" height="24px" viewBox="0 0 46 24" version="1.1" xmlns="http://www.w3.org/2000/svg" xmlns:xlink="http://www.w3.org/1999/xlink">
    <!-- Generator: Sketch 47.1 (45422) - http://www.bohemiancoding.com/sketch -->
    <title>noun_1336749_cc</title>
    <desc>Created with Sketch.</desc>
    <defs></defs>
    <g id="Page-1" stroke="none" stroke-width="1" fill="none" fill-rule="evenodd">
        <g id="Artboard-Copy-4" transform="translate(-936.000000, -67.000000)" fill-rule="nonzero" fill="#727272">
            <g id="noun_1336749_cc" transform="translate(936.000000, 67.000000)">
                <g id="Group">
                    <path d="M44.6104167,12.864 L40.5375,12.288 L38.8604167,8.112 C38.4291667,6.96 37.3270833,6.288 36.0333333,6.288 L32.2479167,6.288 L32.6791667,3.984 C32.8708333,3.072 32.63125,2.16 32.0083333,1.44 C31.4333333,0.768 30.61875,0.384 29.75625,0.384 L13.3208333,0.384 C11.93125,0.384 10.6854167,1.392 10.4458333,2.832 L8.24166667,14.448 C8.05,15.36 8.28958333,16.272 8.9125,16.992 C9.05625,17.136 9.15208333,17.28 9.34375,17.376 L9.00833333,19.296 C8.9125,19.776 9.29583333,20.256 9.82291667,20.256 L11.5,20.256 C11.3083333,22.128 12.6020833,23.568 14.51875,23.568 C16.4354167,23.568 18.2083333,22.08 18.6875,20.256 L34.93125,20.256 C34.7395833,22.128 36.0333333,23.568 37.95,23.568 C39.81875,23.568 41.6395833,22.08 42.11875,20.256 L44.1791667,20.256 C44.5625,20.256 44.8979167,19.968 44.99375,19.584 L45.9041667,14.448 C45.85625,13.68 45.425,13.008 44.6104167,12.864 Z M10.20625,14.832 L12.4104167,3.216 C12.50625,2.736 12.8895833,2.4 13.36875,2.4 L29.8520833,2.4 C30.475,2.4 30.90625,3.024 30.8104167,3.648 L28.60625,15.264 C28.5104167,15.744 28.1270833,16.08 27.6479167,16.08 L11.1645833,16.08 C10.5416667,16.08 10.0625,15.456 10.20625,14.832 Z M16.9625,20.016 C16.7708333,21.072 15.7645833,21.936 14.7104167,21.936 C13.65625,21.936 12.9375,21.072 13.1291667,20.016 C13.3208333,18.96 14.3270833,18.096 15.38125,18.096 C16.4354167,18.096 17.1541667,18.96 16.9625,20.016 Z M32.2479167,12.24 L32.8708333,8.592 L35.65,8.592 C36.1291667,8.592 36.5604167,8.88 36.7041667,9.264 L37.8541667,12.24 L32.2479167,12.24 Z M40.3458333,20.016 C40.1541667,21.072 39.1479167,21.936 38.09375,21.936 C37.0395833,21.936 36.3208333,21.072 36.5125,20.016 C36.7041667,18.96 37.7104167,18.096 38.7645833,18.096 C39.8666667,18.096 40.5375,18.96 40.3458333,20.016 Z" id="Shape"></path>
                    <path d="M7.33125,4.128 L2.5875,4.128 C2.06041667,4.128 1.58125,4.56 1.58125,5.136 C1.58125,5.712 2.0125,6.144 2.5875,6.144 L7.33125,6.144 C7.85833333,6.144 8.3375,5.712 8.3375,5.136 C8.3375,4.56 7.85833333,4.128 7.33125,4.128 Z" id="Shape"></path>
                    <path d="M6.66041667,7.728 L1.91666667,7.728 C1.38958333,7.728 0.910416667,8.16 0.910416667,8.736 C0.910416667,9.312 1.34166667,9.744 1.91666667,9.744 L6.66041667,9.744 C7.1875,9.744 7.66666667,9.312 7.66666667,8.736 C7.66666667,8.16 7.1875,7.728 6.66041667,7.728 Z" id="Shape"></path>
                    <path d="M5.98958333,11.328 L1.24583333,11.328 C0.71875,11.328 0.239583333,11.76 0.239583333,12.336 C0.239583333,12.912 0.670833333,13.344 1.24583333,13.344 L5.98958333,13.344 C6.51666667,13.344 6.99583333,12.912 6.99583333,12.336 C6.99583333,11.76 6.51666667,11.328 5.98958333,11.328 Z" id="Shape"></path>
                </g>
            </g>
        </g>
    </g>
</svg>