<svg width="27" height="26" viewBox="0 0 27 26" version="1.1" xmlns="http://www.w3.org/2000/svg" xmlns:xlink="http://www.w3.org/1999/xlink">
<title>Group 4</title>
<desc>Created using Figma</desc>
<g id="Canvas" transform="translate(-1078 -1465)">
<g id="Group 4">
<g id="Group">
<g id="Shape">
<use xlink:href="#path0_fill" transform="translate(1078.01 1465.06)" fill="#5AB3F0"/>
</g>
<g id="Shape">
<use xlink:href="#path1_fill" transform="translate(1079.52 1477.73)" fill="#5AB3F0"/>
</g>
</g>
<g id="Rectangle 2">
<mask id="mask0_outline" mask-type="alpha">
<g id="Mask">
<use xlink:href="#path2_fill" transform="translate(1087.63 1473.09)" fill="#FFFFFF"/>
</g>
</mask>
<g id="Mask" mask="url(#mask0_outline)">
<use xlink:href="#path2_fill" transform="translate(1087.63 1473.09)" fill="#5AB3F0"/>
</g>
</g>
</g>
</g>
<defs>
<path id="path0_fill" d="M 13.0824 2.53382C 15.9203 2.53382 18.4956 3.63985 20.3807 5.41955L 19.0209 6.73673C 18.6913 7.05849 18.9231 7.60145 19.3918 7.60145L 24.1457 7.60145C 24.4341 7.60145 24.6711 7.37521 24.6711 7.09368L 24.6711 2.4936C 24.6711 2.04113 24.1097 1.8149 23.78 2.13665L 22.2349 3.63482C 19.8708 1.38757 16.6414 0 13.0824 0C 5.86646 0 0 5.686 0 12.6741L 2.61647 12.6741C 2.61647 7.08362 7.31376 2.53382 13.0824 2.53382Z"/>
<path id="path1_fill" d="M 22.0392 0.00502741C 22.0392 5.59551 17.3419 10.1453 11.5733 10.1453C 8.74046 10.1453 6.17034 9.04431 4.28525 7.26461L 5.65014 5.93737C 5.97977 5.61562 5.748 5.07266 5.2793 5.07266L 0.525355 5.07266C 0.236925 5.07266 0 5.29889 0 5.58043L 0 10.1855C 0 10.638 0.561409 10.8642 0.891043 10.5425L 2.4362 9.05437C 4.79515 11.2916 8.01939 12.6741 11.5733 12.6741C 18.7892 12.6741 24.6556 6.9881 24.6556 0L 22.0392 0L 22.0392 0.00502741Z"/>
<path id="path2_fill" fill-rule="evenodd" d="M 6.97156 0L 0 0L 0 1.44238L 6.97156 1.44238L 6.97156 0ZM 4.48914 3.46021L 6.93738 3.46021L 6.93738 2.00464L 0 2.00464L 0 3.46021L 2.58154 3.46021L 2.58154 10.3241L 4.48914 10.3241L 4.48914 3.46021Z"/>
</defs>
</svg>
