<?xml version="1.0" encoding="UTF-8"?>
<svg width="28px" height="25px" viewBox="0 0 28 25" version="1.1" xmlns="http://www.w3.org/2000/svg" xmlns:xlink="http://www.w3.org/1999/xlink">
    <!-- Generator: Sketch 47.1 (45422) - http://www.bohemiancoding.com/sketch -->
    <title>Group Copy 2</title>
    <desc>Created with Sketch.</desc>
    <defs></defs>
    <g id="Page-1" stroke="none" stroke-width="1" fill="none" fill-rule="evenodd">
        <g id="Artboard-Copy-4" transform="translate(-1225.000000, -65.000000)" fill-rule="nonzero" fill="#727272">
            <g id="Group-4" transform="translate(620.000000, 34.000000)">
                <g id="Group-Copy-2" transform="translate(605.000000, 31.000000)">
                    <path d="M14,9.09090909 C11.4263333,9.09090909 9.33333333,11.1295455 9.33333333,13.6363636 C9.33333333,14.2647727 9.85483333,14.7727273 10.5,14.7727273 C11.1451667,14.7727273 11.6666667,14.2647727 11.6666667,13.6363636 C11.6666667,12.3829545 12.7131667,11.3636364 14,11.3636364 C15.2868333,11.3636364 16.3333333,12.3829545 16.3333333,13.6363636 C16.3333333,14.8897727 15.2868333,15.9090909 14,15.9090909 C13.3548333,15.9090909 12.8333333,16.4170455 12.8333333,17.0454545 L12.8333333,20.4545455 C12.8333333,21.0829545 13.3548333,21.5909091 14,21.5909091 C14.6451667,21.5909091 15.1666667,21.0829545 15.1666667,20.4545455 L15.1666667,18.0204545 C17.1745,17.5125 18.6666667,15.7488636 18.6666667,13.6363636 C18.6666667,11.1295455 16.5736667,9.09090909 14,9.09090909" id="Shape"></path>
                    <path d="M14,22.7272727 C13.356,22.7272727 12.8333333,23.2363636 12.8333333,23.8636364 C12.8333333,24.4909091 13.356,25 14,25 C14.644,25 15.1666667,24.4909091 15.1666667,23.8636364 C15.1666667,23.2363636 14.644,22.7272727 14,22.7272727" id="Shape"></path>
                    <path d="M15.8076333,-0.000454545455 C13.4381333,-0.000454545455 11.0278,1.13363636 9.41896667,2.95409091 C8.90563333,2.77113636 8.3608,2.67681818 7.8043,2.67681818 C5.29013333,2.67681818 3.23096667,4.60636364 3.1038,7.02454545 C1.24646667,8.19045455 0.000466666667,10.345 0.000466666667,12.4995455 C0.000466666667,15.2790909 1.84613333,18.2325 4.20396667,19.2245455 L4.42563333,19.3177273 L9.55872057,19.3177273 L9.55872057,17.045 C7.62788724,17.045 6.21423722,14.8408726 6.21423722,12.9601908 C6.21423722,9.20109991 9.41896667,5.95922035 14.0004667,5.96388843 C18.5819667,5.9685565 21.6862419,9.45068485 21.7934814,13.3714857 C21.8575282,15.7131142 20.7454364,18.4118665 18.8501997,19.3177273 L23.4668,19.3177273 L23.5986333,19.2881818 C26.1898,18.6984091 28.0004667,16.3745455 28.0004667,13.6359091 C28.0004667,11.0268182 26.6284667,8.98477273 24.4339667,8.20863636 C23.8996333,4.29954545 20.2246333,-0.000454545455 15.8076333,-0.000454545455 Z" id="Shape"></path>
                </g>
            </g>
        </g>
    </g>
</svg>