<svg width="28" height="25" viewBox="0 0 28 25" version="1.1" xmlns="http://www.w3.org/2000/svg" xmlns:xlink="http://www.w3.org/1999/xlink">
<title>Group</title>
<desc>Created using Figma</desc>
<g id="Canvas" transform="translate(-1611 -1468)">
<g id="Group">
<g id="Shape">
<use xlink:href="#path0_fill" transform="translate(1620.33 1477.09)" fill="#B3B9BD"/>
</g>
<g id="Shape">
<use xlink:href="#path1_fill" transform="translate(1623.83 1490.73)" fill="#B3B9BD"/>
</g>
<g id="Shape">
<use xlink:href="#path2_fill" transform="translate(1611 1468)" fill="#B3B9BD"/>
</g>
</g>
</g>
<defs>
<path id="path0_fill" d="M 4.66667 0C 2.093 0 0 2.03864 0 4.54545C 0 5.17386 0.5215 5.68182 1.16667 5.68182C 1.81183 5.68182 2.33333 5.17386 2.33333 4.54545C 2.33333 3.29205 3.37983 2.27273 4.66667 2.27273C 5.9535 2.27273 7 3.29205 7 4.54545C 7 5.79886 5.9535 6.81818 4.66667 6.81818C 4.0215 6.81818 3.5 7.32614 3.5 7.95455L 3.5 11.3636C 3.5 11.992 4.0215 12.5 4.66667 12.5C 5.31183 12.5 5.83333 11.992 5.83333 11.3636L 5.83333 8.92955C 7.84117 8.42159 9.33333 6.65795 9.33333 4.54545C 9.33333 2.03864 7.24033 0 4.66667 0Z"/>
<path id="path1_fill" d="M 1.16667 0C 0.522667 0 0 0.509091 0 1.13636C 0 1.76364 0.522667 2.27273 1.16667 2.27273C 1.81067 2.27273 2.33333 1.76364 2.33333 1.13636C 2.33333 0.509091 1.81067 0 1.16667 0Z"/>
<path id="path2_fill" d="M 15.8072 0C 13.4377 0 11.0273 1.13409 9.4185 2.95455C 8.90517 2.77159 8.36033 2.67727 7.80383 2.67727C 5.28967 2.67727 3.2305 4.60682 3.10333 7.025C 1.246 8.19091 0 10.3455 0 12.5C 0 15.2795 1.84567 18.233 4.2035 19.225L 4.42517 19.3182L 9.55825 19.3182L 9.55825 17.0455C 7.62742 17.0455 6.21377 14.8413 6.21377 12.9606C 6.21377 9.20156 9.4185 5.95967 14 5.96434C 18.5815 5.96901 21.6858 9.45114 21.793 13.3719C 21.8571 15.7136 20.745 18.4123 18.8497 19.3182L 23.4663 19.3182L 23.5982 19.2886C 26.1893 18.6989 28 16.375 28 13.6364C 28 11.0273 26.628 8.98523 24.4335 8.20909C 23.8992 4.3 20.2242 0 15.8072 0Z"/>
</defs>
</svg>
