<svg width="19" height="19" viewBox="0 0 19 19" version="1.1" xmlns="http://www.w3.org/2000/svg" xmlns:xlink="http://www.w3.org/1999/xlink">
<title>Group</title>
<desc>Created using Figma</desc>
<g id="Canvas" transform="translate(-2033 -454)">
<g id="Group">
<g id="Fill 80">
<use xlink:href="#path0_fill" transform="translate(2033 454)" fill="#FFFFFF"/>
</g>
<g id="Fill 81">
<use xlink:href="#path1_fill" transform="translate(2037.47 458.471)" fill="#FFFFFF"/>
</g>
<g id="Fill 82">
<use xlink:href="#path2_fill" transform="translate(2045.29 457.353)" fill="#FFFFFF"/>
</g>
</g>
</g>
<defs>
<path id="path0_fill" fill-rule="evenodd" d="M 17.3179 9.35706L 17.2791 9.35661C 17.2791 8.60775 17.2949 7.85845 17.2751 7.1105C 17.2561 6.39139 17.2286 5.67002 17.156 4.95406C 16.9932 3.34957 16.0371 2.24386 14.4558 1.94333C 13.6251 1.78518 12.7618 1.7613 11.9117 1.74598C 10.3025 1.71669 8.69239 1.7203 7.08319 1.74463C 6.28085 1.75679 5.47084 1.78698 4.67977 1.90999C 3.30645 2.12401 2.36745 2.90891 1.98815 4.27009C 1.86638 4.70579 1.79467 5.16853 1.7843 5.62046C 1.74326 7.33849 1.718 9.05743 1.72386 10.7755C 1.72792 11.869 1.75273 12.9661 1.84789 14.0543C 1.99086 15.6863 2.98488 16.7987 4.59363 17.0907C 5.41942 17.2407 6.27589 17.2592 7.11927 17.2736C 8.70772 17.3002 10.2971 17.293 11.8855 17.2759C 12.6125 17.2678 13.3414 17.2277 14.0648 17.156C 14.7418 17.0889 15.375 16.8686 15.9193 16.4365C 16.802 15.7363 17.1429 14.7702 17.1948 13.6992C 17.2656 12.2533 17.2796 10.8047 17.3179 9.35706ZM 9.51635 0C 10.7923 0.0220781 12.0682 0.0351447 13.3436 0.0707399C 14.4513 0.101379 15.5242 0.29873 16.4867 0.885375C 17.7486 1.6545 18.5198 2.78859 18.7688 4.22908C 18.9181 5.09102 18.969 5.97685 18.9826 6.85321C 19.0114 8.73796 19.0001 10.6236 18.9798 12.5084C 18.9686 13.4978 18.9356 14.4909 18.6073 15.4425C 17.97 17.2871 16.6747 18.4082 14.7742 18.7691C 13.9155 18.9322 13.0252 18.9696 12.148 18.9831C 10.2682 19.0115 8.38793 18.9998 6.50813 18.9799C 5.51771 18.9691 4.52369 18.9367 3.57071 18.6109C 1.72113 17.9792 0.59902 16.6847 0.232801 14.7882C 0.0668302 13.9313 0.0307495 13.0409 0.0172193 12.1646C -0.0111942 10.2803 -0.000370027 8.39462 0.0203763 6.50942C 0.0312005 5.52042 0.0641241 4.5269 0.392909 3.57575C 1.02973 1.73065 2.32548 0.610526 4.22603 0.249617C 5.08429 0.08651 5.97458 0.0680365 6.85225 0.033793C 7.73893 -0.000450574 8.62786 0.0261332 9.5159 0.0261332L 9.51635 0Z"/>
<path id="path1_fill" fill-rule="evenodd" d="M 5.02737 8.29252C 6.81647 8.29438 8.29118 6.82153 8.29257 5.03104C 8.29397 3.24194 6.81972 1.76537 5.03156 1.76584C 3.23921 1.76677 1.76822 3.23636 1.76636 5.02685C 1.7645 6.81595 3.23735 8.29066 5.02737 8.29252ZM 10.0588 5.03383C 10.0588 7.82467 7.82002 10.0588 5.02453 10.0588C 2.21742 10.0588 -0.000929831 7.81676 2.92384e-07 4.98081C 0.000930416 2.21695 2.26299 -0.00185908 5.07708 1.16886e-06C 7.82653 0.00139635 10.0588 2.25741 10.0588 5.03383Z"/>
<path id="path2_fill" fill-rule="evenodd" d="M 2.23529 1.10861C 2.23617 1.73253 1.73519 2.23924 1.12097 2.23527C 0.504107 2.23131 -0.00524661 1.71843 4.07974e-05 1.10729C 0.00532821 0.494829 0.499701 0.00309907 1.11304 1.47449e-05C 1.74709 -0.00306958 2.23441 0.478085 2.23529 1.10861Z"/>
</defs>
</svg>
