<?xml version="1.0" encoding="UTF-8"?>
<svg width="35px" height="35px" viewBox="0 0 35 35" version="1.1" xmlns="http://www.w3.org/2000/svg" xmlns:xlink="http://www.w3.org/1999/xlink">
    <!-- Generator: Sketch 47.1 (45422) - http://www.bohemiancoding.com/sketch -->
    <title>Group 6</title>
    <desc>Created with Sketch.</desc>
    <defs></defs>
    <g id="Page-1" stroke="none" stroke-width="1" fill="none" fill-rule="evenodd">
        <g id="DV-LandingPage-Copy" transform="translate(-1560.000000, -97.000000)">
            <g id="Group-3" transform="translate(1560.000000, 46.000000)">
                <g id="Group-6" transform="translate(0.000000, 51.000000)">
                    <rect id="Rectangle-3" fill="#5B89A8" opacity="0.25" x="0" y="0" width="35" height="35" rx="17.5"></rect>
                    <g id="Group" transform="translate(8.000000, 8.000000)" fill="#FFFFFF">
                        <path d="M17.3178853,9.35704478 L17.2790987,9.3565942 C17.2790987,8.60774226 17.2948839,7.85843973 17.2750396,7.11048893 C17.2560972,6.39137479 17.2285858,5.67000778 17.1559735,4.95404764 C16.9931596,3.34955799 16.0370227,2.24385241 14.4557887,1.94332037 C13.625032,1.78516933 12.7618027,1.76128897 11.9116527,1.7459695 C10.3024562,1.71668227 8.69235775,1.72028685 7.08316128,1.74461778 C6.28081809,1.75678324 5.47080776,1.78697162 4.67973977,1.90997798 C3.30642047,2.12400005 2.36742186,2.90889782 1.98812415,4.27007817 C1.866352,4.70578204 1.79464173,5.16852028 1.78426854,5.62044477 C1.74322682,7.33847875 1.71797037,9.05741388 1.72383347,10.7754479 C1.72789255,11.868988 1.75269799,12.9661327 1.84786067,14.0542659 C1.9908302,15.6862405 2.98485178,16.7987047 4.59359724,17.0906759 C5.41939285,17.2407166 6.275857,17.2591901 7.11924192,17.2736084 C8.70769202,17.3001922 10.2970441,17.292983 11.8854942,17.2758613 C12.6125191,17.267751 13.341348,17.22765 14.0647648,17.1560089 C14.7417278,17.0888736 15.374943,16.8685435 15.9193096,16.4364442 C16.8019322,15.7362541 17.1428942,14.7702261 17.1947602,13.6992146 C17.2655684,12.2533266 17.2795497,10.8047351 17.3178853,9.35704478 Z M9.51634933,0 C10.7922509,0.0220780659 12.0681525,0.0351446763 13.343603,0.0707399254 C14.4512786,0.101378874 15.5242266,0.298729749 16.4866776,0.885375499 C17.748598,1.65450322 18.5198216,2.78859489 18.768778,4.22907605 C18.9180616,5.09102176 18.9690255,5.97684783 18.9825558,6.85321188 C19.0114203,8.73795779 19.0001451,10.6236048 18.9798497,12.5083508 C18.9685745,13.4978086 18.935651,14.490871 18.6073171,15.4424807 C17.9700429,17.2871256 16.674748,18.4081506 14.7742003,18.7690594 C13.9154811,18.9321668 13.0251914,18.9695643 12.1479809,18.9830815 C10.2681796,19.0114676 8.38792736,18.9997527 6.50812611,18.9799275 C5.51771259,18.9691137 4.523691,18.9366725 3.57071115,18.6109084 C1.72112743,17.9792054 0.599019576,16.6847098 0.232801098,14.788249 C0.0668301619,13.9312596 0.0307495236,13.0409278 0.0172192843,12.1645637 C-0.0111942184,10.2802684 -0.000370026898,8.39462133 0.0203763401,6.50942485 C0.0312005316,5.52041762 0.064124114,4.52690465 0.39290893,3.57574553 C1.0297322,1.73065002 2.32547812,0.610526107 4.22602574,0.249617316 C5.08429392,0.0865099724 5.97458367,0.0680364887 6.8522452,0.033792958 C7.73892688,-0.000450572773 8.62786361,0.0261332208 9.51589832,0.0261332208 L9.51634933,0 L9.51634933,0 Z" id="Fill-80"></path>
                        <path d="M9.49790737,12.7631069 C11.2870004,12.7649672 12.7617116,11.2921164 12.7631068,9.5016283 C12.764502,7.71253543 11.2902558,6.23596412 9.50209292,6.23642918 C7.70974447,6.2373593 6.23875377,7.70695469 6.23689352,9.49744274 C6.23503327,11.2865356 7.70788422,12.7612467 9.49790737,12.7631069 Z M14.5294118,9.50441867 C14.5294118,12.2952547 12.2906039,14.5294118 9.495117,14.5294118 C6.68800354,14.5294118 4.4696584,12.2873487 4.47058853,9.45140162 C4.47151865,6.68753916 6.7335796,4.46872916 9.54766899,4.4705894 C12.2971148,4.47198459 14.5294118,6.72799954 14.5294118,9.50441867 L14.5294118,9.50441867 Z" id="Fill-81"></path>
                        <path d="M14.5294106,4.46155137 C14.5302918,5.08546678 14.0293098,5.59217774 13.4150892,5.58821218 C12.7982248,5.58424661 12.288871,5.071367 12.2941584,4.46022952 C12.2994459,3.84777019 12.7938186,3.35604025 13.407158,3.35295592 C14.0412065,3.34987159 14.5285294,3.8310267 14.5294106,4.46155137" id="Fill-82"></path>
                    </g>
                </g>
            </g>
        </g>
    </g>
</svg>