<?xml version="1.0" encoding="UTF-8"?>
<svg width="20px" height="28px" viewBox="0 0 20 28" version="1.1" xmlns="http://www.w3.org/2000/svg" xmlns:xlink="http://www.w3.org/1999/xlink">
    <!-- Generator: Sketch 47.1 (45422) - http://www.bohemiancoding.com/sketch -->
    <title>Shape Copy 2</title>
    <desc>Created with Sketch.</desc>
    <defs></defs>
    <g id="Page-1" stroke="none" stroke-width="1" fill-rule="evenodd">
        <g id="Artboard-Copy-4" transform="translate(-1089.000000, -63.000000)" fill-rule="nonzero" fill="#727272">
            <g id="Group-4" transform="translate(620.000000, 34.000000)">
                <path d="M469,36.9545418 C469,38.1889945 469.284838,39.3501539 469.791587,40.3948812 C469.876109,40.6214793 470.087232,40.7832269 470.337266,40.8129421 C470.5873,40.8426573 470.833521,40.7352626 470.973661,40.5353643 C471.113801,40.335466 471.123913,40.0772215 470.999798,39.8678928 C470.572508,38.9869718 470.333199,38.00303 470.333199,36.9545418 C470.333199,33.2417881 473.326164,30.2727267 476.999194,30.2727267 C480.672257,30.2727267 483.665188,33.2417881 483.665188,36.9545418 C483.665188,38.00303 483.425879,38.9869718 482.998589,39.8678928 C482.874474,40.0772215 482.884586,40.335466 483.024726,40.5353643 C483.164866,40.7352626 483.411087,40.8426573 483.661121,40.8129421 C483.911155,40.7832269 484.122278,40.6214793 484.2068,40.3948812 C484.713549,39.3501539 484.998387,38.1889945 484.998387,36.9545418 C484.998387,32.5838584 481.425514,29 476.999194,29 C472.572873,29 469,32.5838584 469,36.9545418 Z M476.999194,31.2272717 C473.853777,31.2272717 471.333098,33.8204905 471.333098,36.9545418 C471.333098,37.9926509 471.615703,38.9593505 472.093421,39.7982905 C472.194372,40.018676 472.416852,40.1658996 472.668452,40.178812 C472.920053,40.1917243 473.157784,40.068119 473.282903,39.8593356 C473.408022,39.6505522 473.399149,39.3922661 473.259971,39.1917567 C472.883808,38.5310938 472.666297,37.7746328 472.666297,36.9545418 C472.666297,34.4653302 474.622333,32.4999984 476.999194,32.4999984 C479.376054,32.4999984 481.33209,34.4653302 481.33209,36.9545418 C481.33209,37.7746328 481.114579,38.5310938 480.738417,39.1917567 C480.599238,39.3922661 480.590366,39.6505522 480.715484,39.8593356 C480.840603,40.068119 481.078334,40.1917243 481.329935,40.178812 C481.581536,40.1658996 481.804015,40.018676 481.904966,39.7982905 C482.382618,38.9593505 482.665289,37.9926509 482.665289,36.9545418 C482.665289,33.8204905 480.14461,31.2272717 476.999194,31.2272717 Z M476.999194,34.3586407 C475.891505,34.3586407 475.506791,35.0709468 475.506791,36.1285827 L475.506791,47.5831357 L473.666196,44.9090964 C472.573973,42.9742655 471.499815,43.1754199 470.666499,43.6363697 C469.463493,44.5818717 470.912197,45.4217886 471.569531,47.0371651 C473.082612,50.5842226 473.836579,54.273024 476.332594,57 L485.331687,57 C488.494235,54.7630237 491.039045,44.1252877 486.664886,43.6363697 C486.263726,43.6363697 485.621358,43.6977788 485.331687,43.9545514 C485.331687,42.6818247 484.168271,42.3557203 483.665188,42.363643 C483.088013,42.3728703 482.665156,42.6818247 482.331989,43.318188 C482.331989,42.0454613 480.738417,41.6975372 480.219258,41.7153015 C479.7001,41.7330658 478.79339,42.4031512 478.503819,42.9779146 L478.503819,36.2960867 C478.503819,35.2384508 478.106882,34.3586407 476.999194,34.3586407 Z" id="Shape-Copy-2"></path>
            </g>
        </g>
    </g>
</svg>