<svg width="22" height="24" viewBox="0 0 22 24" version="1.1" xmlns="http://www.w3.org/2000/svg" xmlns:xlink="http://www.w3.org/1999/xlink">
<title>Shape</title>
<desc>Created using Figma</desc>
<g id="Canvas" transform="translate(-1219 -1466)">
<g id="Shape">
<use xlink:href="#path0_fill" transform="translate(1219 1466)" fill="#5AB3F0"/>
</g>
</g>
<defs>
<path id="path0_fill" fill-rule="evenodd" d="M 19.2484 7.92786L 18.0917 7.92786C 18.0917 2.87378 15.0095 0 10.7583 0C 6.50708 0 3.42493 2.87378 3.42493 7.92786L 2.27234 7.92786C 0.568115 7.92786 0 8.54456 0 10.2124L 0 20.7826C 0 22.4504 0.571167 24 2.27234 24L 19.2484 24C 20.9526 24 22 22.4504 22 20.7826L 22 10.2124C 22 8.54456 20.9526 7.92786 19.2484 7.92786ZM 12.6908 20.7654L 8.83301 20.7654L 9.57361 15.5092C 8.81543 15.0927 8.30212 14.2102 8.30212 13.2985C 8.30212 11.9561 9.41345 10.8229 10.781 10.8229C 11.4364 10.8192 12.0663 11.071 12.5315 11.5228C 12.9967 11.9747 13.2588 12.5892 13.2599 13.2307C 13.2599 14.1597 12.7269 15.1351 11.944 15.5444L 12.6908 20.7654ZM 10.7625 2.26733C 8.26599 2.26733 5.74792 3.2782 5.74792 7.92798L 15.777 7.92798C 15.777 3.2782 13.2589 2.26733 10.7625 2.26733Z"/>
</defs>
</svg>
