<svg width="20" height="28" viewBox="0 0 20 28" version="1.1" xmlns="http://www.w3.org/2000/svg" xmlns:xlink="http://www.w3.org/1999/xlink">
<title>Shape</title>
<desc>Created using Figma</desc>
<g id="Canvas" transform="translate(-1481 -1461)">
<g id="Shape">
<use xlink:href="#path0_fill" transform="translate(1481 1461)" fill="#5AB3F0"/>
</g>
</g>
<defs>
<path id="path0_fill" fill-rule="evenodd" d="M 0 7.95459C 0 9.18896 0.28479 10.3501 0.791626 11.3949C 0.876099 11.6215 1.08728 11.7832 1.33728 11.813C 1.58728 11.8427 1.8335 11.7352 1.97363 11.5354C 2.11377 11.3354 2.1239 11.0773 1.99976 10.8679C 1.57251 9.98694 1.33325 9.00305 1.33325 7.95459C 1.33325 4.24182 4.32617 1.27271 7.99915 1.27271C 11.6722 1.27271 14.6652 4.24182 14.6652 7.95459C 14.6652 9.00305 14.4259 9.98694 13.9985 10.8679C 13.8745 11.0773 13.8846 11.3354 14.0248 11.5354C 14.1649 11.7352 14.4111 11.8427 14.6611 11.813C 14.9111 11.7832 15.1223 11.6215 15.2068 11.3949C 15.7135 10.3501 15.9984 9.18896 15.9984 7.95459C 15.9984 3.58386 12.4255 0 7.99915 0C 3.57288 0 0 3.58386 0 7.95459ZM 7.99927 2.22729C 4.85376 2.22729 2.33313 4.82056 2.33313 7.95459C 2.33313 8.99268 2.61572 9.95935 3.09351 10.7983C 3.19446 11.0187 3.41687 11.1659 3.66846 11.1788C 3.92004 11.1918 4.15784 11.0681 4.28296 10.8594C 4.40808 10.6506 4.39917 10.3923 4.26001 10.1918C 3.88379 9.53113 3.66638 8.77466 3.66638 7.95459C 3.66638 5.46533 5.62231 3.5 7.99927 3.5C 10.3761 3.5 12.3322 5.46533 12.3322 7.95459C 12.3322 8.77466 12.1146 9.53113 11.7384 10.1918C 11.5992 10.3923 11.5905 10.6506 11.7156 10.8594C 11.8406 11.0681 12.0784 11.1918 12.33 11.1788C 12.5815 11.1659 12.8041 11.0187 12.905 10.7983C 13.3827 9.95935 13.6653 8.99268 13.6653 7.95459C 13.6653 4.82056 11.1447 2.22729 7.99927 2.22729ZM 6.50671 7.12854C 6.50671 6.07092 6.89148 5.35864 7.99915 5.35864C 9.10681 5.35864 9.50378 6.2384 9.50378 7.29614L 9.50378 13.9779C 9.79333 13.4032 10.7001 12.733 11.2192 12.7153C 11.7384 12.6975 13.3319 13.0454 13.3319 14.3182C 13.6652 13.6819 14.088 13.3729 14.6652 13.3636C 15.1682 13.3557 16.3317 13.6819 16.3317 14.9546C 16.6213 14.6978 17.2637 14.6364 17.6648 14.6364C 22.0391 15.1252 19.4943 25.7631 16.3317 28L 7.33252 28C 5.53394 26.0349 4.63989 23.5703 3.71448 21.0193C 3.35571 20.0302 2.99219 19.0281 2.56946 18.0371C 2.35571 17.512 2.05835 17.0687 1.79565 16.6772C 1.25049 15.8645 0.854614 15.2745 1.6665 14.6364C 2.49976 14.1754 3.57397 13.9742 4.66614 15.9091L 6.50671 18.5831L 6.50671 7.12854Z"/>
</defs>
</svg>
