<?xml version="1.0" encoding="UTF-8"?>
<svg width="22px" height="24px" viewBox="0 0 22 24" version="1.1" xmlns="http://www.w3.org/2000/svg" xmlns:xlink="http://www.w3.org/1999/xlink">
    <!-- Generator: Sketch 47.1 (45422) - http://www.bohemiancoding.com/sketch -->
    <title>Shape Copy</title>
    <desc>Created with Sketch.</desc>
    <defs></defs>
    <g id="Page-1" stroke="none" stroke-width="1" fill="none" fill-rule="evenodd">
        <g id="Artboard-Copy-6" transform="translate(-812.000000, -65.000000)" fill-rule="nonzero" fill="#727272">
            <g id="Group-4" transform="translate(620.000000, 34.000000)">
                <path d="M211.248451,38.9278945 L210.091643,38.9278945 C210.091643,33.8737733 207.009577,31 202.75831,31 C198.507042,31 195.424977,33.8737733 195.424977,38.9278945 L194.2723,38.9278945 C192.568075,38.9278945 192,39.5444973 192,41.2123573 L192,51.7825464 C192,53.4504064 192.571174,55 194.2723,55 L211.248451,55 C212.952676,55 214,53.4504064 214,51.7825464 L214,41.2123573 C214,39.5444973 212.952676,38.9278945 211.248451,38.9278945 Z M204.426042,52 L200.535417,52 L201.282292,46.7133202 C200.517708,46.2944525 200,45.4069003 200,44.4898647 C200,43.139728 201.120833,42.0000418 202.5,42.0000418 C203.160975,41.9962556 203.79627,42.2495966 204.265414,42.7040481 C204.734558,43.1584997 204.998903,43.7766243 205,44.4217478 C205,45.3560668 204.4625,46.3371526 203.672917,46.7489036 L204.426042,52 Z M198,39 C198,34.0714286 200.510814,33 203,33 C205.489186,33 208,34.0714286 208,39 L198,39 Z" id="Shape-Copy"></path>
            </g>
        </g>
    </g>
</svg>