<?xml version="1.0" encoding="UTF-8"?>
<svg width="35px" height="35px" viewBox="0 0 35 35" version="1.1" xmlns="http://www.w3.org/2000/svg" xmlns:xlink="http://www.w3.org/1999/xlink">
    <!-- Generator: Sketch 47.1 (45422) - http://www.bohemiancoding.com/sketch -->
    <title>Group 7</title>
    <desc>Created with Sketch.</desc>
    <defs></defs>
    <g id="Page-1" stroke="none" stroke-width="1" fill="none" fill-rule="evenodd">
        <g id="DV-LandingPage-Copy" transform="translate(-1560.000000, -148.000000)">
            <g id="Group-3" transform="translate(1560.000000, 46.000000)">
                <g id="Group-7" transform="translate(0.000000, 102.000000)">
                    <rect id="Rectangle-3" fill="#5B89A8" opacity="0.25" x="0" y="0" width="35" height="35" rx="17.5"></rect>
                    <g id="vk-social-network-logo" transform="translate(6.000000, 12.000000)" fill-rule="nonzero" fill="#FFFFFF">
                        <path d="M21.8833237,11.7404269 C21.8566842,11.6809664 21.8318501,11.6316444 21.8087813,11.5921287 C21.4270826,10.8801398 20.6976666,10.0062237 19.6209745,8.97013121 L19.5982266,8.94640517 L19.5868326,8.93477069 L19.5753183,8.92284534 L19.5637638,8.92284534 C19.075106,8.44038815 18.7656629,8.11599376 18.6360763,7.94991148 C18.3989689,7.63353657 18.3458505,7.31329736 18.4754371,6.98881987 C18.5669902,6.74366463 18.9108962,6.22593002 19.5063526,5.43490966 C19.819567,5.01569421 20.067627,4.67970689 20.2508135,4.42657372 C21.5719949,2.6074388 22.1447837,1.44498748 21.9690595,0.938762699 L21.9008159,0.820464911 C21.8549591,0.749245238 21.736606,0.684092119 21.5459171,0.624673139 C21.3547869,0.565378814 21.1104981,0.555572605 20.8126095,0.595088304 L17.5138083,0.618689689 C17.4603689,0.599077271 17.3840612,0.600905547 17.2846446,0.624673139 C17.1853484,0.648440731 17.1356802,0.660366079 17.1356802,0.660366079 L17.0782689,0.690075569 L17.032693,0.725768509 C16.994499,0.749369894 16.9524937,0.790880076 16.9066369,0.850215953 C16.8610208,0.909344071 16.822867,0.978735467 16.7923761,1.05780842 C16.4332246,2.01478641 16.0248864,2.9045337 15.5665992,3.72700872 C15.2840363,4.21744384 15.0245421,4.64247653 14.7875551,5.0023561 C14.5508891,5.36211102 14.3523368,5.62716953 14.1920987,5.79707457 C14.03162,5.96714582 13.8867879,6.10339396 13.7567199,6.20631761 C13.6268525,6.3092828 13.5277167,6.35278747 13.4590719,6.33687315 C13.3902667,6.32095884 13.3254734,6.30516918 13.2641304,6.28937952 C13.1572916,6.21815985 13.0713553,6.12130276 13.006562,5.99872514 C12.9414878,5.87614752 12.8976771,5.72186594 12.8747688,5.53600503 C12.8519808,5.35001947 12.8385006,5.19004529 12.8346491,5.05554232 C12.8310785,4.92120557 12.8327234,4.73118949 12.8404665,4.48603425 C12.8484102,4.24075437 12.8519808,4.07479674 12.8519808,3.98778741 C12.8519808,3.68720216 12.8576377,3.3609795 12.8689916,3.00903631 C12.880546,2.65709312 12.8898939,2.37823943 12.8977173,2.17280766 C12.9055005,1.96716812 12.9091113,1.74960324 12.9091113,1.52023767 C12.9091113,1.29087209 12.895631,1.11099464 12.8689916,0.980439088 C12.8426731,0.850049746 12.8022725,0.723483163 12.7490337,0.600780892 C12.6954739,0.478203276 12.6170801,0.383382218 12.5142132,0.316068409 C12.4111457,0.248837702 12.2830034,0.195485276 12.1305085,0.155844921 C11.725741,0.0609823117 11.2103233,0.0096659199 10.5840149,0.00168798692 C9.16373783,-0.0141016721 8.2511353,0.0808855925 7.84640789,0.286525125 C7.6860495,0.373409802 7.54093659,0.492123107 7.41118952,0.642291074 C7.27369935,0.816351289 7.25452214,0.911338554 7.35377825,0.926962006 C7.81202532,0.998057023 8.13643311,1.16812827 8.3273627,1.43700954 L8.39616797,1.57949044 C8.44968763,1.68228943 8.50312705,1.86428603 8.5566066,2.12523092 C8.6100059,2.38617581 8.64446871,2.67483571 8.65963396,2.99104441 C8.69774766,3.56848886 8.69774766,4.06278829 8.65963396,4.47398425 C8.62139989,4.88534642 8.58529217,5.20558564 8.55082936,5.43495121 C8.51636655,5.66431678 8.46485287,5.85017769 8.39616797,5.99249238 C8.3273627,6.13484862 8.28158614,6.22185795 8.25863768,6.25343727 C8.23572934,6.28501659 8.21663237,6.30491987 8.20146712,6.3127316 C8.10221102,6.35212264 7.99898306,6.37219213 7.89214433,6.37219213 C7.78514513,6.37219213 7.65539806,6.31676212 7.50270253,6.20598519 C7.35004711,6.09520827 7.19161447,5.94304582 7.02740459,5.74924853 C6.86319471,5.55540969 6.67800223,5.28453393 6.47174692,4.93657971 C6.26565208,4.58862549 6.05181415,4.17738797 5.83035347,3.70286717 L5.64712686,3.3587357 C5.53258515,3.13734806 5.37611837,2.81498971 5.17756603,2.3919515 C4.97889334,1.96874709 4.80328947,1.5593794 4.65063406,1.16393155 C4.58961201,0.997849265 4.49793853,0.871407337 4.37577408,0.784398006 L4.31844305,0.748705066 C4.28032934,0.717125748 4.21914682,0.683593498 4.13521643,0.647859007 C4.05116569,0.612166067 3.96346405,0.586570199 3.87175045,0.570822091 L0.733227409,0.594423476 C0.412510627,0.594423476 0.194901442,0.669673667 0.0803196144,0.81996629 L0.0344628116,0.891061308 C0.01155447,0.93066011 0,0.99390185 0,1.08095273 C0,1.16796206 0.0229083416,1.27475002 0.0687651444,1.40119195 C0.526931976,2.5164405 1.02517838,3.59200714 1.56350434,4.62805808 C2.10183031,5.66410902 2.56962587,6.49867561 2.96661017,7.1310099 C3.36367472,7.76380126 3.76840213,8.36102434 4.1807924,8.92238827 C4.59318267,9.48395996 4.86615702,9.84383953 4.99971546,10.0019439 C5.13343438,10.1603391 5.23846772,10.2787615 5.31481549,10.3578345 L5.60122994,10.6425054 C5.78449667,10.8323553 6.05361953,11.0597264 6.40871889,11.3246187 C6.76389848,11.5896772 7.15711154,11.8506221 7.58855866,12.1078689 C8.02008602,12.3647001 8.52210367,12.5742871 9.09489245,12.7363804 C9.66760098,12.8986399 10.2250239,12.9637515 10.7672415,12.9323384 L12.0845313,12.9323384 C12.3516883,12.9084461 12.5540921,12.8214368 12.6916626,12.6712688 L12.7372385,12.6118083 C12.76789,12.5646055 12.7965755,12.4912667 12.8230545,12.3925814 C12.8498545,12.2937298 12.8631742,12.1848227 12.8631742,12.0663587 C12.8553509,11.7263409 12.8803454,11.4198968 12.9374759,11.1470681 C12.9945662,10.8743225 13.0596403,10.668683 13.1324174,10.5301911 C13.2051544,10.3918238 13.2872393,10.2750634 13.3785918,10.1804086 C13.470145,10.085546 13.5353796,10.0280799 13.5736538,10.0083013 C13.6116872,9.98839801 13.6420578,9.9748937 13.6649662,9.96679111 C13.8482329,9.90354937 14.0639163,9.96479663 14.3123374,10.1508237 C14.560558,10.3366846 14.7933725,10.5661749 15.0111422,10.8389205 C15.2287915,11.1119154 15.4902916,11.4181932 15.7956827,11.758211 C16.1012743,12.0983535 16.3684714,12.3511958 16.5974746,12.5175274 L16.8264778,12.6598837 C16.979414,12.7548709 17.1779664,12.8418803 17.4223755,12.9209532 C17.6663433,12.9999846 17.880101,13.0197632 18.0636486,12.9802475 L20.9958762,12.9328786 C21.2859014,12.9328786 21.5115747,12.8831411 21.6716522,12.7844558 C21.8320507,12.6856042 21.927335,12.5766971 21.9580667,12.4582331 C21.9887181,12.3396444 21.990363,12.2050999 21.963884,12.0546827 C21.936723,11.9046393 21.9099632,11.7997212 21.8833237,11.7404269 Z" id="Shape"></path>
                    </g>
                </g>
            </g>
        </g>
    </g>
</svg>